
<svg xmlns="http://www.w3.org/2000/svg" version="1.1" xmlns:xlink="http://www.w3.org/1999/xlink" preserveAspectRatio="none" x="0px" y="0px" width="400px" height="400px" viewBox="0 0 400 400">
<defs>
<g id="Logo_0_Layer5_0_FILL">
<path fill="#3B4252" stroke="none" d="
M 135.05 -134.95
Q 79.15 -190.85 0 -190.85 -79.05 -190.85 -135 -134.95 -190.95 -79.05 -190.95 0.1 -190.95 79.15 -135 135.1 -79.05 191 0 191 79.15 191 135.05 135.1 190.95 79.15 190.95 0.1 190.95 -79.05 135.05 -134.95 Z"/>
</g>

<g id="Logo_0_Layer4_0_FILL">
<path fill="#FFFFFF" stroke="none" d="
M 63.7 79.9
Q 47.95 66.3 27.05 67.85 6.3 69.35 -7.25 85.15 -20.95 101.05 -19.4 121.8 -17.9 142.6 -2 156.2 13.75 169.8 34.5 168.3 55.4 166.75 68.95 150.95 82.5 135.15 81 114.35 79.45 93.6 63.7 79.9
M 147.1 49
Q 156.2 38.55 155.15 24.7 154.15 10.8 143.6 1.7 133.15 -7.35 119.2 -6.35 105.35 -5.3 96.25 5.2 87.15 15.75 88.15 29.65 89.2 43.5 99.75 52.5 110.3 61.65 124.15 60.6 138.1 59.6 147.1 49
M 126.95 -77.5
Q 122.4 -72.2 122.9 -65.3 123.4 -58.3 128.75 -53.8 134 -49.25 140.9 -49.75 147.85 -50.3 152.4 -55.55 156.85 -60.75 156.35 -67.75 155.85 -74.65 150.6 -79.25 145.35 -83.75 138.4 -83.2 131.5 -82.7 126.95 -77.5 Z"/>
</g>

<g id="Mask_Logo_0_3_MASK_0_FILL">
<path fill="#FFFFFF" stroke="none" d="
M -79.6 -255.45
Q -159.5 -338.9 -171.3 -215.5 -183.1 -92.15 -267.85 33.1 -352.65 158.3 -250.15 156.2 -147.65 154.1 -116.95 151.85 -86.3 149.6 -78.85 153.5
L 93.35 -144.85
Q 93.2947265625 -144.89140625 93.2 -144.95 93.080859375 -145.04140625 92.9 -145.15
L 78.9 -153.4
Q 78.6 -153.55 78.35 -153.65 35.25 -261.7 0 -214.9 4.5 -172 4.35 -172 4.15 -172 3.95 -172 3.75 -172 3.55 -172 3.35 -172 3.15 -172 2.9 -172 2.65 -172 2.45 -172 2.25 -172 2.05 -172 1.85 -172 1.6 -172 1.4 -172 1.15 -172 0.9 -172 0.7 -172 0.5 -172 0.25 -172 -79.6 -255.45 Z"/>
</g>

<g id="Logo_0_Layer3_0_FILL">
<path fill="#FFFFFF" stroke="none" d="
M 36.6 -82.15
L 1.3 -82.15 5.8 -126.05 -33.15 -126.05 -37.65 -82.15 -83.5 -82.15 -79 -126.05 -117.85 -126.05 -122.35 -82.15 -152.7 -82.15 -152.7 -45.8 -125.9 -45.8 -131.7 11.15 -152.7 11.15 -152.7 47.45 -135.3 47.45 -137.35 67.35 -138.2 75.95 -139.35 87.15 -100.5 87.15 -99.4 75.95 -98.55 67.35 -96.55 47.45 -50.55 47.45 -54.6 87.15 -15.8 87.15 -11.85 47.45 26.05 47.45 26.05 11.15 -8.05 11.15 -2.25 -45.8 36.6 -45.8 36.6 -82.15
M -87.05 -45.8
L -41.2 -45.8 -46.9 11.15 -92.85 11.15 -87.05 -45.8 Z"/>
</g>

<g id="Logo_0_Layer1_0_FILL">
<path fill="#FFFFFF" stroke="none" d="
M 93.35 -144.85
Q 86.3 -149.55 78.9 -153.4
L -93.35 144.95
Q -86.3 149.6 -78.85 153.5
L 93.35 -144.85 Z"/>
</g>
</defs>

<g transform="matrix( 1, 0, 0, 1, 200,199.95) ">
<g transform="matrix( 1, 0, 0, 1, 0,0) ">
<use xlink:href="#Logo_0_Layer5_0_FILL"/>
</g>

<g transform="matrix( 1, 0, 0, 1, 0,0) ">
<use xlink:href="#Logo_0_Layer4_0_FILL"/>
</g>

<mask id="Mask_Mask_1">
<g transform="matrix( 1, 0, 0, 1, 0,0) ">
<use xlink:href="#Mask_Logo_0_3_MASK_0_FILL"/>
</g>
</mask>

<g mask="url(#Mask_Mask_1)">
<g transform="matrix( 1, 0, 0, 1, 0,0) ">
<use xlink:href="#Logo_0_Layer3_0_FILL"/>
</g>
</g>

<g transform="matrix( 1, 0, 0, 1, 0,0) ">
<use xlink:href="#Logo_0_Layer1_0_FILL"/>
</g>
</g>
</svg>
